<?xml version="1.0" encoding="UTF-8"?>
<svg id="Layer_1" data-name="Layer 1" xmlns="http://www.w3.org/2000/svg" viewBox="0 0 318.17 63.49">
  <defs>
    <style>
      .cls-1 {
        fill: #d1d1d1;
      }

      .cls-2 {
        fill: #162b47;
      }

      .cls-3 {
        fill: #258de9;
      }
    </style>
  </defs>
  <g>
    <path class="cls-2" d="m76.68,19.19h8.5c4.71,0,8.81,1.53,8.81,6.36,0,3.29-1.76,5.13-4.52,5.86v.08c3.03.46,5.59,2.49,5.59,6.13,0,5.21-4.17,7.09-10,7.09h-8.39v-25.51Zm7.81,10.49c2.91,0,4.17-1.03,4.17-3.29,0-2.11-1.38-3.06-4.06-3.06h-2.6v6.36h2.49Zm.34,10.88c3.1,0,4.75-.96,4.75-3.41s-1.38-3.6-4.52-3.6h-3.06v7.01h2.83Z"/>
    <path class="cls-2" d="m98.77,31.99c0-6.93,4.63-13.25,13.17-13.25s13.14,6.24,13.14,13.1-4.48,13.33-13.02,13.33-13.29-6.28-13.29-13.17Zm20.6,0c0-4.75-2.22-8.89-7.31-8.89s-7.55,3.98-7.55,8.73,2.34,8.96,7.43,8.96,7.43-4.06,7.43-8.81Z"/>
    <path class="cls-2" d="m130.45,19.19h5.44l9.19,13.21c1.53,2.18,2.45,3.87,2.68,4.29h.08c-.04-.34-.15-2.07-.15-4.02v-13.48h4.9v25.51h-4.94l-9.92-14.17c-1.38-1.92-2.15-3.33-2.45-3.83h-.08c.04.34.15,1.8.15,3.41v14.59h-4.9v-25.51Z"/>
    <path class="cls-2" d="m159.47,19.19h7.7c10.03,0,14.59,5.06,14.59,12.41s-4.63,13.1-14.78,13.1h-7.51v-25.51Zm7.93,21.18c5.75,0,8.66-2.95,8.66-8.62s-2.8-8.23-8.85-8.23h-2.34v16.85h2.53Z"/>
    <path class="cls-1" d="m187.55,19.19h4.33v25.51h-4.33v-25.51Z"/>
    <path class="cls-1" d="m199.49,19.19h4.33l10.46,15.01c1.38,1.99,2.22,3.49,2.57,4.06h.08c-.04-.42-.15-1.84-.15-3.75v-15.32h3.94v25.51h-3.98l-11.11-15.97c-1.11-1.53-1.88-2.95-2.26-3.56h-.08c.04.38.15,1.69.15,3.1v16.43h-3.94v-25.51Z"/>
    <path class="cls-1" d="m225.19,19.19h4.67l5.9,16.32c.69,1.99,1.19,3.75,1.42,4.33h.08c.19-.61.69-2.37,1.38-4.33l5.71-16.32h4.33l-9.5,25.51h-4.14l-9.84-25.51Z"/>
    <path class="cls-1" d="m251.23,42.59l1.95-3.03c.57.46,2.45,2.07,5.63,2.07,2.83,0,4.56-1.65,4.56-3.56,0-2.64-2.8-3.56-5.75-5.06-3.14-1.53-5.71-3.33-5.71-7.47s3.6-6.82,7.89-6.82c3.98,0,6.17,1.38,7.12,2.11l-1.88,3.06c-.88-.61-2.68-1.65-5.09-1.65s-3.87,1.19-3.87,3.22c0,2.22,2.03,3.1,4.63,4.29,3.37,1.57,6.89,3.29,6.89,8.12,0,4.37-3.45,7.28-8.81,7.28-4.02,0-6.59-1.65-7.58-2.57Z"/>
    <path class="cls-1" d="m277.66,22.79h-7.12v-3.6h18.58v3.6h-7.09v21.91h-4.37v-21.91Z"/>
    <path class="cls-1" d="m293.74,19.19h7.81c5.67,0,8.96,2.53,8.96,7.09,0,4.21-2.95,6.36-6.47,6.78v.08c.61.42,1.42,1.3,2.83,3.45l5.59,8.12h-4.86l-4.86-7.24c-2.45-3.52-2.87-3.83-4.33-3.83h-.34v11.07h-4.33v-25.51Zm7.66,11.22c3.29,0,4.79-1.42,4.79-3.94s-1.57-3.87-5.02-3.87h-3.1v7.81h3.33Z"/>
  </g>
  <g>
    <path class="cls-3" d="m24.88,26.2c-2.01-1.12-4.55-.41-5.67,1.6l-13.41,23.97c-1.12,2.01-.41,4.55,1.6,5.67.64.36,1.34.53,2.03.53,1.46,0,2.88-.77,3.64-2.13l13.41-23.97c1.12-2.01.41-4.55-1.6-5.67Z"/>
    <path class="cls-3" d="m39.41,26.92c-2.01-1.12-4.55-.41-5.67,1.6l-13.41,23.97c-1.12,2.01-.41,4.55,1.6,5.67.64.36,1.34.53,2.03.53,1.46,0,2.88-.77,3.64-2.13l13.41-23.97c1.12-2.01.41-4.55-1.6-5.67Z"/>
    <path class="cls-3" d="m51.4,31.81c-2.01-1.11-4.55-.39-5.66,1.63l-10.96,19.78c-1.11,2.01-.39,4.55,1.63,5.66.64.35,1.33.52,2.02.52,1.47,0,2.89-.78,3.65-2.15l10.96-19.78c1.11-2.01.39-4.55-1.63-5.66Z"/>
  </g>
  <path class="cls-3" d="m21.78,5.04c-2.01-1.12-4.55-.41-5.67,1.6L2.7,30.61c-1.12,2.01-.41,4.55,1.6,5.67.64.36,1.34.53,2.03.53,1.46,0,2.88-.77,3.64-2.13l13.41-23.97c1.12-2.01.41-4.55-1.6-5.67Z"/>
  <path class="cls-3" d="m36.29,5.81c-2.01-1.12-4.55-.41-5.67,1.6l-13.41,23.97c-1.12,2.01-.41,4.55,1.6,5.67.64.36,1.34.53,2.03.53,1.46,0,2.88-.77,3.64-2.13l13.41-23.97c1.12-2.01.41-4.55-1.6-5.67Z"/>
  <path class="cls-3" d="m50.8,6.58c-2.01-1.12-4.55-.41-5.67,1.6l-13.41,23.97c-1.12,2.01-.41,4.55,1.6,5.67.64.36,1.34.53,2.03.53,1.46,0,2.88-.77,3.64-2.13l13.41-23.97c1.12-2.01.41-4.55-1.6-5.67Z"/>
</svg>